<?xml version="1.0" encoding="iso-8859-1"?>
<!-- Generator: Adobe Illustrator 19.0.0, SVG Export Plug-In . SVG Version: 6.00 Build 0)  -->
<svg version="1.1" id="Capa_1" xmlns="http://www.w3.org/2000/svg" xmlns:xlink="http://www.w3.org/1999/xlink" x="0px" y="0px"
	 viewBox="0 0 480.009 480.009" style="enable-background:new 0 0 480.009 480.009;" xml:space="preserve">
<g>
	<g>
		<path d="M418.1,25.784l5.428-15.063c1.367-3.789-0.297-8.008-3.891-9.836c-3.586-1.844-7.984-0.711-10.25,2.625l-9.141,13.449
			c-2.702-0.584-5.447-0.949-8.242-0.949h-304c-2.786,0-5.523,0.361-8.218,0.941L70.622,3.51c-2.273-3.336-6.672-4.477-10.25-2.625
			c-3.594,1.828-5.258,6.047-3.891,9.836l5.411,15.075C53.13,33.31,48.005,44.167,48.005,56.01v24v48v104c0,22.055,17.945,40,40,40
			h62.269l18.2,50.703c0.734,2.031,2.258,3.688,4.227,4.578l12.135,5.518l-13.065,19.201h-43.766c-35.289,0-64,28.711-64,64
			c0,17.094,6.656,33.164,18.742,45.258c12.094,12.086,28.164,18.742,45.258,18.742s33.164-6.656,45.258-18.742
			c11.57-11.578,18.164-26.797,18.703-43.07l29.703-51.969l18.361-8.325l18.311,8.325l29.703,51.969
			c0.539,16.273,7.133,31.492,18.703,43.07c12.094,12.086,28.164,18.742,45.258,18.742s33.164-6.656,45.258-18.742
			c12.086-12.094,18.742-28.164,18.742-45.258c0-35.289-28.711-64-64-64h-43.766l-13.091-19.2l12.162-5.519
			c1.969-0.891,3.492-2.547,4.227-4.578l18.179-50.703h62.29c22.055,0,40-17.945,40-40v-104v-48v-24
			C432.005,44.164,426.877,33.304,418.1,25.784z M64.005,56.01c0-4.836,1.411-9.414,3.973-13.261l10.38,28.917l0.124,0.344H64.005
			V56.01z M64.005,88.01h20.211l11.461,32H64.005V88.01z M88.005,256.009c-13.234,0-24-10.766-24-24v-96h37.414l26.895,74.824
			l16.216,45.176H88.005z M212.7,352.72c-1.531,0.695-2.805,1.859-3.641,3.32l-32,56c-0.688,1.211-1.055,2.578-1.055,3.969
			c0,12.82-4.992,24.875-14.055,33.945c-9.07,9.063-21.125,14.055-33.945,14.055s-24.875-4.992-33.945-14.055
			c-9.063-9.07-14.055-21.125-14.055-33.945c0-26.469,21.531-48,48-48h48c2.648,0,5.125-1.313,6.617-3.5l16.997-24.98l7.508,3.414
			l13.542,6.167L212.7,352.72z M297.388,364.509c1.492,2.188,3.969,3.5,6.617,3.5h48c26.469,0,48,21.531,48,48
			c0,12.82-4.992,24.875-14.055,33.945c-9.07,9.063-21.125,14.055-33.945,14.055s-24.875-4.992-33.945-14.055
			c-9.063-9.07-14.055-21.125-14.055-33.945c0-1.391-0.367-2.758-1.055-3.969l-32-56c-0.836-1.461-2.109-2.625-3.641-3.32
			l-53.186-24.173l-14.009-6.381c-0.023-0.01-0.048-0.008-0.071-0.018l-17.648-8.021l-18.898-52.647
			c-0.019-0.057-0.019-0.117-0.039-0.173l-17.339-48.24L92.74,64.361l4.173,6.109l136.446,200.127
			c0.016,0.024,0.021,0.052,0.037,0.076l11.244,16.469L297.388,364.509z M297.614,314.127l-11.594,5.258l-24.404-35.755
			l-7.923-11.62h59.023L297.614,314.127z M416.005,232.01c0,13.234-10.766,24-24,24h-67.922h-81.289l-81.813-120h255.023V232.01z
			 M416.005,120.01h-265.93l-21.813-32h287.742V120.01z M416.005,72.01H117.349l-10.595-15.507l-16.7-24.493h301.951
			c2.969,0,5.867,0.563,8.859,1.758c1.268,0.459,2.419,1.043,3.571,1.735c7.241,4.368,11.57,12.039,11.57,20.507V72.01z"/>
	</g>
</g>
<g>
	<g>
		<rect x="232.005" y="312.009" width="16" height="16"/>
	</g>
</g>
<g>
	<g>
		<path d="M352.005,384.009c-17.648,0-32,14.352-32,32s14.352,32,32,32s32-14.352,32-32S369.653,384.009,352.005,384.009z
			 M352.005,432.009c-8.82,0-16-7.18-16-16s7.18-16,16-16s16,7.18,16,16S360.825,432.009,352.005,432.009z"/>
	</g>
</g>
<g>
	<g>
		<path d="M128.005,384.009c-17.648,0-32,14.352-32,32s14.352,32,32,32s32-14.352,32-32S145.653,384.009,128.005,384.009z
			 M128.005,432.009c-8.82,0-16-7.18-16-16s7.18-16,16-16s16,7.18,16,16S136.825,432.009,128.005,432.009z"/>
	</g>
</g>
<g>
	<g>
		<path d="M392.005,192.01h-144c-4.422,0-8,3.578-8,8v32c0,4.422,3.578,8,8,8h144c4.422,0,8-3.578,8-8v-32
			C400.005,195.588,396.427,192.01,392.005,192.01z M384.005,224.01h-128v-16h128V224.01z"/>
	</g>
</g>
<g>
</g>
<g>
</g>
<g>
</g>
<g>
</g>
<g>
</g>
<g>
</g>
<g>
</g>
<g>
</g>
<g>
</g>
<g>
</g>
<g>
</g>
<g>
</g>
<g>
</g>
<g>
</g>
<g>
</g>
</svg>
